<svg width="1266" height="844" viewBox="0 0 1266 844" fill="none" xmlns="http://www.w3.org/2000/svg">
<g clip-path="url(#clip0)">
<rect width="1266" height="844" fill="#F5F7FD"/>
<path d="M-93.5229 461.775C-68.2767 436.683 -13.3244 337.945 157.615 337.945C328.555 337.945 304.917 378.818 546.318 384.554C1101.38 404.124 1064.41 256 1221.68 256C1378.96 256 1376.13 400.413 1376.13 408.848C1376.13 417.283 1394 611.97 1394 611.97L-58.7719 642C-58.7719 642 -118.769 486.867 -93.5229 461.775Z" fill="#D3DAFF" fill-opacity="0.54"/>
<path d="M1384.74 690.233C1360.22 655.319 1445.07 621.754 1291.99 621.754C1138.91 621.754 981.588 414.243 747.146 422.224C372.347 435.839 255.126 408.14 95.1032 464.947C-64.9191 521.754 -127 660.72 -127 672.457C-127 684.194 -59.9064 899.216 -59.9064 899.216L1350.99 941C1350.99 941 1409.26 725.147 1384.74 690.233Z" fill="#8CD7F3"/>
</g>
<defs>
<clipPath id="clip0">
<rect width="1266" height="844" fill="white"/>
</clipPath>
</defs>
</svg>
